<svg preserveAspectRatio="none" width="100%" height="100%" overflow="visible" style="display: block;" viewBox="0 0 18 18" fill="none" xmlns="http://www.w3.org/2000/svg">
<g id="Frame">
<path id="Vector" d="M12.7912 7.00875L8.01563 11.8125C7.91085 11.9164 7.76944 11.975 7.62188 11.9756C7.54785 11.9761 7.47446 11.9619 7.40593 11.9339C7.33739 11.9059 7.27506 11.8646 7.2225 11.8125L4.8375 9.39937C4.78478 9.34708 4.74293 9.28487 4.71437 9.21632C4.68582 9.14778 4.67111 9.07426 4.67111 9C4.67111 8.92574 4.68582 8.85222 4.71437 8.78368C4.74293 8.71513 4.78478 8.65292 4.8375 8.60062C4.94289 8.49586 5.08546 8.43705 5.23406 8.43705C5.38267 8.43705 5.52523 8.49586 5.63063 8.60062L7.62188 10.5919L11.9925 6.21563C12.0448 6.1629 12.107 6.12106 12.1756 6.0925C12.2441 6.06394 12.3176 6.04924 12.3919 6.04924C12.4661 6.04924 12.5397 6.06394 12.6082 6.0925C12.6767 6.12106 12.739 6.1629 12.7912 6.21563C12.896 6.32102 12.9548 6.46358 12.9548 6.61219C12.9548 6.76079 12.896 6.90336 12.7912 7.00875ZM9 1.125C7.44247 1.125 5.91992 1.58686 4.62488 2.45218C3.32985 3.31749 2.32049 4.5474 1.72445 5.98637C1.12841 7.42534 0.972457 9.00874 1.27632 10.5363C1.58017 12.0639 2.3302 13.4671 3.43153 14.5685C4.53287 15.6698 5.93606 16.4198 7.46366 16.7237C8.99126 17.0275 10.5747 16.8716 12.0136 16.2756C13.4526 15.6795 14.6825 14.6702 15.5478 13.3751C16.4131 12.0801 16.875 10.5575 16.875 9C16.875 6.91142 16.0453 4.90838 14.5685 3.43153C13.0916 1.95469 11.0886 1.125 9 1.125Z" fill="white"/>
</g>
</svg>
